<svg id="Layer_1" data-name="Layer 1" xmlns="http://www.w3.org/2000/svg" xmlns:xlink="http://www.w3.org/1999/xlink" viewBox="0 0 400 400"><defs><style>.cls-1{fill:#1a1a47;}.cls-2{fill:url(#linear-gradient);}.cls-3{fill:url(#linear-gradient-2);}</style><linearGradient id="linear-gradient" x1="152.27" y1="169.92" x2="220.9" y2="318.44" gradientUnits="userSpaceOnUse"><stop offset="0" stop-color="#4370ef"/><stop offset="0.3" stop-color="#2944f2"/><stop offset="0.6" stop-color="#131ff4"/><stop offset="0.85" stop-color="#0608f5"/><stop offset="1" stop-color="#0100f6"/></linearGradient><linearGradient id="linear-gradient-2" x1="230.56" y1="168.45" x2="261.18" y2="329.17" gradientUnits="userSpaceOnUse"><stop offset="0" stop-color="#04c6f8"/><stop offset="0.27" stop-color="#06b7f8"/><stop offset="0.78" stop-color="#0b90f7"/><stop offset="1" stop-color="#0d7ef7"/></linearGradient></defs><rect class="cls-1" width="400" height="400" rx="60"/><path class="cls-2" d="M227.55,185.79l15.53-47.89a6.69,6.69,0,0,0-6.36-8.76h-45.9a6.69,6.69,0,0,1-4.73-2h0a6.7,6.7,0,0,1-1.63-6.81l14.19-43.73a6.7,6.7,0,0,0-6.36-8.76H142a6.68,6.68,0,0,0-6.35,4.63l-15.54,47.86a6.7,6.7,0,0,0,6.36,8.77h43a6.68,6.68,0,0,1,4.73,2l2.17,2.18a6.69,6.69,0,0,1,1.63,6.8l-12.13,37.4a6.59,6.59,0,0,1-1.63,2.67l-8.29,8.3a6.65,6.65,0,0,1-4.73,2h-49A6.69,6.69,0,0,0,95.91,195L80.39,242.91a6.69,6.69,0,0,0,6.36,8.76H137a6.68,6.68,0,0,0,6.36-4.62l14-43.14a6.59,6.59,0,0,1,1.63-2.67l8.85-8.86a6.69,6.69,0,0,1,4.73-2h48.62A6.68,6.68,0,0,0,227.55,185.79Z"/><path class="cls-3" d="M172.57,214.09,157,262a6.7,6.7,0,0,0,6.36,8.77H209.3a6.64,6.64,0,0,1,4.72,2h0a6.72,6.72,0,0,1,1.64,6.81l-14.19,43.72a6.69,6.69,0,0,0,6.35,8.77h50.27a6.69,6.69,0,0,0,6.36-4.63L280,279.51a6.7,6.7,0,0,0-6.36-8.77h-43a6.68,6.68,0,0,1-4.72-2l-2.18-2.18a6.7,6.7,0,0,1-1.63-6.81l12.13-37.39a6.81,6.81,0,0,1,1.63-2.67l8.3-8.3a6.65,6.65,0,0,1,4.72-2h49a6.67,6.67,0,0,0,6.36-4.62L319.73,157a6.7,6.7,0,0,0-6.36-8.77H263.11a6.7,6.7,0,0,0-6.36,4.63l-14,43.14a6.81,6.81,0,0,1-1.63,2.67l-8.86,8.86a6.65,6.65,0,0,1-4.73,2H178.92A6.68,6.68,0,0,0,172.57,214.09Z"/></svg>